<svg width="1370" height="425" viewBox="0 0 1370 425" fill="none" xmlns="http://www.w3.org/2000/svg">
<line x1="485.5" y1="2.40413e-07" x2="485.5" y2="425" stroke="#C4C4C4" stroke-width="11"/>
<line x1="1012.5" y1="2.40413e-07" x2="1012.5" y2="425" stroke="#C4C4C4" stroke-width="11"/>
<mask id="mask0_350_2" style="mask-type:alpha" maskUnits="userSpaceOnUse" x="1114" y="53" width="256" height="319">
<path d="M1123.87 346.324L1114.01 83.5738C1113.69 74.8948 1120.34 67.5398 1129.01 66.9998L1352.49 53.0318C1361.32 52.4798 1368.91 59.1848 1369.47 68.0068C1369.49 68.3388 1369.5 68.6718 1369.5 69.0048V355.319C1369.5 364.158 1362.33 371.323 1353.49 371.323C1353.25 371.323 1353.01 371.318 1352.78 371.307L1139.15 361.712C1130.83 361.339 1124.19 354.647 1123.87 346.324V346.324Z" fill="white"/>
</mask>
<g mask="url(#mask0_350_2)">
<path d="M1123.87 346.324L1114.01 83.5738C1113.69 74.8948 1120.34 67.5398 1129.01 66.9998L1352.49 53.0318C1361.32 52.4798 1368.91 59.1848 1369.47 68.0068C1369.49 68.3388 1369.5 68.6718 1369.5 69.0048V355.319C1369.5 364.158 1362.33 371.323 1353.49 371.323C1353.25 371.323 1353.01 371.318 1352.78 371.307L1139.15 361.712C1130.83 361.339 1124.19 354.647 1123.87 346.324V346.324Z" fill="#FF4785"/>
<path d="M1302.67 92.127L1304.19 55.411L1334.88 53L1336.21 90.863C1336.22 91.3183 1336.11 91.7688 1335.88 92.1612C1335.65 92.5537 1335.31 92.8718 1334.9 93.0779C1334.49 93.2839 1334.04 93.3695 1333.58 93.3243C1333.13 93.2791 1332.7 93.1052 1332.34 92.823L1320.51 83.498L1306.49 94.128C1306.13 94.4021 1305.7 94.5679 1305.25 94.606C1304.8 94.644 1304.35 94.5528 1303.94 94.3429C1303.54 94.1331 1303.21 93.8133 1302.98 93.4209C1302.76 93.0285 1302.65 92.5797 1302.67 92.127V92.127ZM1263.41 172.98C1263.41 179.207 1305.36 176.223 1310.99 171.849C1310.99 129.447 1288.23 107.165 1246.57 107.165C1204.91 107.165 1181.57 129.793 1181.57 163.735C1181.57 222.852 1261.35 223.984 1261.35 256.229C1261.35 265.281 1256.91 270.655 1247.16 270.655C1234.46 270.655 1229.43 264.165 1230.02 242.103C1230.02 237.317 1181.57 235.825 1180.09 242.103C1176.33 295.569 1209.64 310.99 1247.75 310.99C1284.69 310.99 1313.65 291.303 1313.65 255.664C1313.65 192.304 1232.68 194.001 1232.68 162.604C1232.68 149.876 1242.14 148.179 1247.75 148.179C1253.66 148.179 1264.3 149.221 1263.41 172.98V172.98Z" fill="white"/>
</g>
<path d="M196.667 253.769C216.063 253.769 231.787 238.045 231.787 218.649C231.787 199.254 216.063 183.53 196.667 183.53C177.272 183.53 161.548 199.254 161.548 218.649C161.548 238.045 177.272 253.769 196.667 253.769Z" fill="#00D8FF"/>
<path d="M196.667 299.166C154.456 300.187 112.35 294.497 71.9241 282.309C53.2494 276.389 35.8319 267.063 20.5517 254.803C14.721 250.615 9.86528 245.215 6.31783 238.974C2.77038 232.732 0.615142 225.797 0 218.645C0 195.424 25.5106 172.667 68.2436 157.776C109.751 144.582 153.119 138.187 196.667 138.84C239.635 138.239 282.422 144.519 323.406 157.439C341.391 163.173 358.218 172.047 373.106 183.652C378.837 187.645 383.62 192.849 387.116 198.896C390.612 204.944 392.735 211.686 393.335 218.645C393.335 242.779 364.818 267.236 318.882 282.435C279.239 294.226 238.021 299.869 196.667 299.166V299.166ZM196.667 155.641C155.004 155.084 113.517 161.163 73.7643 173.65C34.4308 187.374 16.801 206.142 16.801 218.602C16.801 231.639 35.7513 252.134 77.3605 266.365C116.035 277.966 156.303 283.366 196.667 282.365C236.231 283.072 275.67 277.719 313.614 266.491C356.811 252.176 376.478 231.653 376.478 218.645C375.769 214.181 374.142 209.912 371.7 206.109C369.258 202.305 366.054 199.05 362.29 196.548C348.969 186.253 333.937 178.387 317.885 173.313C278.678 161.004 237.757 155.038 196.667 155.641V155.641Z" fill="#00D8FF"/>
<path d="M116.876 393.808C110.323 393.958 103.847 392.368 98.1086 389.2C77.9923 377.597 71.0246 344.135 79.4673 299.674C88.7759 257.125 104.905 216.362 127.229 178.963C148.171 141.443 174.98 107.515 206.641 78.4655C220.592 65.7482 236.687 55.6035 254.178 48.5018C260.505 45.5369 267.406 44 274.393 44C281.38 44 288.281 45.5369 294.607 48.5018C315.524 60.5547 322.45 97.472 312.687 144.855C303.091 185.095 287.381 223.626 266.105 259.105C245.9 296.181 219.935 329.814 189.18 358.745C174.722 371.961 157.942 382.386 139.69 389.495C132.382 392.207 124.669 393.665 116.876 393.808V393.808ZM141.783 187.307C120.488 223.119 105.029 262.093 95.9874 302.765C88.219 343.714 95.6783 368.339 106.523 374.605C117.761 381.109 145.042 374.942 178.166 346.003C207.526 318.287 232.309 286.093 251.593 250.62C271.976 216.702 287.045 179.864 296.279 141.385C305.466 96.7837 297.529 69.475 286.263 62.985C282.041 61.3671 277.528 60.6428 273.011 60.858C268.495 61.0732 264.072 62.2232 260.022 64.2352C244.453 70.6599 230.139 79.7808 217.739 91.1787C187.489 119.004 161.881 151.484 141.881 187.391L141.783 187.307Z" fill="#00D8FF"/>
<path d="M276.417 393.991C257.382 393.991 233.206 382.472 208.033 360.824C175.817 331.511 148.554 297.18 127.301 259.161C105.256 222.277 89.2549 182.103 79.9038 140.163C75.8484 121.712 75.0969 102.687 77.6843 83.9726C78.2825 77.0303 80.3964 70.3038 83.877 64.2674C87.3576 58.231 92.1201 53.0317 97.8286 49.036C118.718 36.941 154.16 49.3732 190.333 81.4862C220.403 109.893 245.939 142.744 266.05 178.893C288.08 214.916 304.249 254.21 313.952 295.306C318.182 314.435 318.835 334.181 315.877 353.547C315.173 360.689 312.933 367.595 309.31 373.79C305.688 379.985 300.768 385.324 294.889 389.439C289.245 392.568 282.869 394.139 276.417 393.991V393.991ZM141.84 250.704C162.229 287.038 188.272 319.894 218.99 348.041C250.583 375.223 275.644 381.067 286.419 374.731C297.657 368.199 305.945 341.537 297.404 298.396C288.046 259.16 272.538 221.653 251.454 187.265C232.263 152.667 207.889 121.211 179.179 93.9886C145.127 63.758 117.509 57.0011 106.257 63.5192C102.75 66.3692 99.8721 69.9154 97.8048 73.9339C95.7375 77.9525 94.5259 82.356 94.2465 86.8664C92.013 103.556 92.7406 120.509 96.3958 136.946C105.391 177.054 120.737 215.467 141.854 250.733L141.84 250.704Z" fill="#00D8FF"/>
<path d="M587 218.5V384H918V53H587V218.5Z" fill="#007ACC"/>
<path d="M660.196 219.599L660.092 233.153H703.173V355.571H733.649V233.153H776.73V219.861C776.73 212.504 776.573 206.358 776.363 206.2C776.205 205.99 749.988 205.884 718.201 205.937L660.355 206.095L660.198 219.598L660.196 219.599Z" fill="white"/>
<path d="M854.085 205.71C862.49 207.813 868.901 211.542 874.785 217.637C877.833 220.895 882.35 226.832 882.719 228.251C882.822 228.671 868.428 238.338 859.706 243.749C859.391 243.96 858.129 242.594 856.711 240.491C852.456 234.293 847.99 231.612 841.159 231.14C831.125 230.456 824.662 235.711 824.715 244.484C824.715 247.059 825.082 248.583 826.133 250.685C828.34 255.256 832.438 257.988 845.311 263.556C869.006 273.75 879.145 280.475 885.451 290.036C892.491 300.703 894.067 317.725 889.286 330.387C884.032 344.152 871.003 353.506 852.665 356.605C846.991 357.603 833.542 357.445 827.447 356.342C814.155 353.978 801.545 347.411 793.769 338.794C790.721 335.431 784.784 326.657 785.153 326.026C785.31 325.817 786.676 324.976 788.199 324.083C789.67 323.242 795.24 320.036 800.494 316.99L810.003 311.473L812 314.415C814.785 318.671 820.879 324.503 824.557 326.446C835.117 332.017 849.619 331.228 856.764 324.817C859.811 322.034 861.072 319.144 861.072 314.887C861.072 311.052 860.599 309.372 858.602 306.483C856.029 302.805 850.775 299.704 835.853 293.243C818.778 285.886 811.422 281.315 804.697 274.064C800.809 269.862 797.131 263.136 795.608 257.514C794.347 252.839 794.03 241.122 795.03 236.394C798.55 219.895 811.002 208.391 828.97 204.975C834.801 203.872 848.357 204.292 854.085 205.712V205.71Z" fill="white"/>
</svg>
